<svg xmlns="http://www.w3.org/2000/svg" zoomAndPan="magnify" preserveAspectRatio="xMidYMid meet" version="1.0" viewBox="614.78 377.76 58.77 58.77">
  <defs>
    <g/>
  </defs>
  <g fill="#e60404" fill-opacity="1">
    <g transform="translate(618.710957, 435.699989)">
      <g>
        <path d="M 24.96875 0.828125 C 21.375 0.828125 18.148438 0.335938 15.296875 -0.640625 C 12.441406 -1.617188 10.0625 -2.898438 8.15625 -4.484375 C 6.257812 -6.078125 4.84375 -7.828125 3.90625 -9.734375 L 7.578125 -14.1875 L 8.5625 -14.1875 C 12.101562 -8.21875 17.570312 -5.234375 24.96875 -5.234375 C 29.257812 -5.234375 32.453125 -6.128906 34.546875 -7.921875 C 36.648438 -9.722656 37.703125 -12.226562 37.703125 -15.4375 C 37.703125 -17.3125 37.351562 -18.898438 36.65625 -20.203125 C 35.96875 -21.503906 34.828125 -22.613281 33.234375 -23.53125 C 31.648438 -24.457031 29.492188 -25.257812 26.765625 -25.9375 L 20.078125 -27.578125 C 15.109375 -28.773438 11.441406 -30.679688 9.078125 -33.296875 C 6.722656 -35.921875 5.546875 -39.238281 5.546875 -43.25 C 5.546875 -46.082031 6.273438 -48.613281 7.734375 -50.84375 C 9.191406 -53.070312 11.328125 -54.8125 14.140625 -56.0625 C 16.953125 -57.3125 20.3125 -57.9375 24.21875 -57.9375 C 28.519531 -57.9375 32.144531 -57.328125 35.09375 -56.109375 C 38.050781 -54.898438 40.414062 -53.085938 42.1875 -50.671875 L 38.90625 -46.25 L 37.9375 -46.25 C 36.289062 -48.257812 34.347656 -49.734375 32.109375 -50.671875 C 29.867188 -51.609375 27.238281 -52.078125 24.21875 -52.078125 C 20.257812 -52.078125 17.269531 -51.304688 15.25 -49.765625 C 13.238281 -48.234375 12.234375 -46.113281 12.234375 -43.40625 C 12.234375 -40.820312 12.972656 -38.769531 14.453125 -37.25 C 15.941406 -35.726562 18.441406 -34.550781 21.953125 -33.71875 L 28.796875 -32.078125 C 34.335938 -30.773438 38.351562 -28.773438 40.84375 -26.078125 C 43.332031 -23.378906 44.578125 -19.9375 44.578125 -15.75 C 44.578125 -12.519531 43.851562 -9.660156 42.40625 -7.171875 C 40.957031 -4.679688 38.757812 -2.722656 35.8125 -1.296875 C 32.875 0.117188 29.257812 0.828125 24.96875 0.828125 Z M 24.96875 0.828125 "/>
      </g>
    </g>
  </g>
  <g fill="#e60404" fill-opacity="1">
    <g transform="translate(672.720668, 431.763046)">
      <g>
        <path d="M 0.828125 -24.96875 C 0.828125 -21.375 0.335938 -18.148438 -0.640625 -15.296875 C -1.617188 -12.441406 -2.898438 -10.0625 -4.484375 -8.15625 C -6.078125 -6.257812 -7.828125 -4.84375 -9.734375 -3.90625 L -14.1875 -7.578125 L -14.1875 -8.5625 C -8.21875 -12.101562 -5.234375 -17.570312 -5.234375 -24.96875 C -5.234375 -29.257812 -6.128906 -32.453125 -7.921875 -34.546875 C -9.722656 -36.648438 -12.226562 -37.703125 -15.4375 -37.703125 C -17.3125 -37.703125 -18.898438 -37.351562 -20.203125 -36.65625 C -21.503906 -35.96875 -22.613281 -34.828125 -23.53125 -33.234375 C -24.457031 -31.648438 -25.257812 -29.492188 -25.9375 -26.765625 L -27.578125 -20.078125 C -28.773438 -15.109375 -30.679688 -11.441406 -33.296875 -9.078125 C -35.921875 -6.722656 -39.238281 -5.546875 -43.25 -5.546875 C -46.082031 -5.546875 -48.613281 -6.273438 -50.84375 -7.734375 C -53.070312 -9.191406 -54.8125 -11.328125 -56.0625 -14.140625 C -57.3125 -16.953125 -57.9375 -20.3125 -57.9375 -24.21875 C -57.9375 -28.519531 -57.328125 -32.144531 -56.109375 -35.09375 C -54.898438 -38.050781 -53.085938 -40.414062 -50.671875 -42.1875 L -46.25 -38.90625 L -46.25 -37.9375 C -48.257812 -36.289062 -49.734375 -34.347656 -50.671875 -32.109375 C -51.609375 -29.867188 -52.078125 -27.238281 -52.078125 -24.21875 C -52.078125 -20.257812 -51.304688 -17.269531 -49.765625 -15.25 C -48.234375 -13.238281 -46.113281 -12.234375 -43.40625 -12.234375 C -40.820312 -12.234375 -38.769531 -12.972656 -37.25 -14.453125 C -35.726562 -15.941406 -34.550781 -18.441406 -33.71875 -21.953125 L -32.078125 -28.796875 C -30.773438 -34.335938 -28.773438 -38.351562 -26.078125 -40.84375 C -23.378906 -43.332031 -19.9375 -44.578125 -15.75 -44.578125 C -12.519531 -44.578125 -9.660156 -43.851562 -7.171875 -42.40625 C -4.679688 -40.957031 -2.722656 -38.757812 -1.296875 -35.8125 C 0.117188 -32.875 0.828125 -29.257812 0.828125 -24.96875 Z M 0.828125 -24.96875 "/>
      </g>
    </g>
  </g>
</svg>
