<svg xmlns="http://www.w3.org/2000/svg" xmlns:xlink="http://www.w3.org/1999/xlink" zoomAndPan="magnify" preserveAspectRatio="xMidYMid meet" version="1.0" viewBox="614.78 377.76 227.22 58.77"><defs><g/></defs><g fill="#e60404" fill-opacity="1"><g transform="translate(690.310513, 435.699989)"><g><path d="M 25.3125 0.828125 C 21.351562 0.828125 17.832031 0.335938 14.75 -0.640625 C 11.664062 -1.617188 9.09375 -2.898438 7.03125 -4.484375 C 4.976562 -6.078125 3.40625 -7.828125 2.3125 -9.734375 L 8.515625 -17.3125 L 9.5 -17.3125 C 11.21875 -14.757812 13.394531 -12.726562 16.03125 -11.21875 C 18.675781 -9.707031 21.769531 -8.953125 25.3125 -8.953125 C 28.332031 -8.953125 30.609375 -9.585938 32.140625 -10.859375 C 33.679688 -12.140625 34.453125 -13.898438 34.453125 -16.140625 C 34.453125 -17.492188 34.203125 -18.625 33.703125 -19.53125 C 33.210938 -20.445312 32.394531 -21.226562 31.25 -21.875 C 30.101562 -22.53125 28.554688 -23.09375 26.609375 -23.5625 L 19.265625 -25.234375 C 14.128906 -26.410156 10.304688 -28.359375 7.796875 -31.078125 C 5.285156 -33.796875 4.03125 -37.332031 4.03125 -41.6875 C 4.03125 -44.914062 4.835938 -47.753906 6.453125 -50.203125 C 8.066406 -52.648438 10.414062 -54.550781 13.5 -55.90625 C 16.582031 -57.257812 20.273438 -57.9375 24.578125 -57.9375 C 28.972656 -57.9375 32.738281 -57.351562 35.875 -56.1875 C 39.019531 -55.03125 41.671875 -53.253906 43.828125 -50.859375 L 38.25 -43.203125 L 37.265625 -43.203125 C 35.648438 -44.898438 33.800781 -46.171875 31.71875 -47.015625 C 29.632812 -47.859375 27.253906 -48.28125 24.578125 -48.28125 C 21.472656 -48.28125 19.113281 -47.734375 17.5 -46.640625 C 15.882812 -45.546875 15.078125 -44.035156 15.078125 -42.109375 C 15.078125 -40.316406 15.644531 -38.882812 16.78125 -37.8125 C 17.914062 -36.75 19.875 -35.914062 22.65625 -35.3125 L 30.15625 -33.75 C 35.707031 -32.582031 39.734375 -30.597656 42.234375 -27.796875 C 44.734375 -24.992188 45.984375 -21.34375 45.984375 -16.84375 C 45.984375 -13.269531 45.210938 -10.160156 43.671875 -7.515625 C 42.140625 -4.878906 39.820312 -2.828125 36.71875 -1.359375 C 33.625 0.0976562 29.820312 0.828125 25.3125 0.828125 Z M 25.3125 0.828125 "/></g></g></g><g fill="#e60404" fill-opacity="1"><g transform="translate(735.834047, 405.291621)"><g><path d="M 12.359375 0.40625 C 10.460938 0.40625 8.757812 -0.0234375 7.25 -0.890625 C 5.738281 -1.753906 4.546875 -3.03125 3.671875 -4.71875 C 2.796875 -6.40625 2.359375 -8.421875 2.359375 -10.765625 C 2.359375 -13.117188 2.796875 -15.140625 3.671875 -16.828125 C 4.546875 -18.515625 5.738281 -19.789062 7.25 -20.65625 C 8.757812 -21.519531 10.460938 -21.953125 12.359375 -21.953125 C 14.640625 -21.953125 16.453125 -21.519531 17.796875 -20.65625 C 19.148438 -19.800781 20.125 -18.660156 20.71875 -17.234375 L 18.5625 -15.671875 L 18.171875 -15.671875 C 17.578125 -16.847656 16.820312 -17.710938 15.90625 -18.265625 C 14.988281 -18.828125 13.804688 -19.109375 12.359375 -19.109375 C 11.035156 -19.109375 9.867188 -18.796875 8.859375 -18.171875 C 7.859375 -17.546875 7.082031 -16.609375 6.53125 -15.359375 C 5.976562 -14.109375 5.703125 -12.578125 5.703125 -10.765625 C 5.703125 -8.960938 5.984375 -7.441406 6.546875 -6.203125 C 7.109375 -4.960938 7.882812 -4.023438 8.875 -3.390625 C 9.875 -2.753906 11.035156 -2.4375 12.359375 -2.4375 C 13.859375 -2.4375 15.097656 -2.773438 16.078125 -3.453125 C 17.066406 -4.128906 17.84375 -5.195312 18.40625 -6.65625 L 18.8125 -6.65625 L 20.90625 -5.4375 C 20.34375 -3.625 19.34375 -2.195312 17.90625 -1.15625 C 16.46875 -0.113281 14.617188 0.40625 12.359375 0.40625 Z M 12.359375 0.40625 "/></g></g></g><g fill="#e60404" fill-opacity="1"><g transform="translate(758.038914, 405.291621)"><g><path d="M 3.75 0 L 3.75 -21.546875 L 6.78125 -21.546875 L 6.78125 -18.171875 L 7.1875 -18.0625 C 8.1875 -20.507812 10.078125 -21.734375 12.859375 -21.734375 C 14.328125 -21.734375 15.425781 -21.46875 16.15625 -20.9375 L 15.328125 -18.25 L 14.9375 -18.171875 C 14.132812 -18.566406 13.25 -18.765625 12.28125 -18.765625 C 10.5625 -18.765625 9.238281 -18.117188 8.3125 -16.828125 C 7.394531 -15.546875 6.9375 -13.457031 6.9375 -10.5625 L 6.9375 0 Z M 3.75 0 "/></g></g></g><g fill="#e60404" fill-opacity="1"><g transform="translate(774.677913, 405.291621)"><g><path d="M 20.53125 -10.046875 L 5.71875 -10.046875 C 5.8125 -7.421875 6.441406 -5.492188 7.609375 -4.265625 C 8.773438 -3.046875 10.375 -2.4375 12.40625 -2.4375 C 13.9375 -2.4375 15.171875 -2.707031 16.109375 -3.25 C 17.046875 -3.800781 17.785156 -4.664062 18.328125 -5.84375 L 18.734375 -5.84375 L 20.796875 -4.609375 C 20.171875 -3.046875 19.171875 -1.816406 17.796875 -0.921875 C 16.429688 -0.0351562 14.632812 0.40625 12.40625 0.40625 C 10.320312 0.40625 8.53125 0 7.03125 -0.8125 C 5.53125 -1.632812 4.375 -2.878906 3.5625 -4.546875 C 2.757812 -6.210938 2.359375 -8.285156 2.359375 -10.765625 C 2.359375 -13.210938 2.785156 -15.273438 3.640625 -16.953125 C 4.492188 -18.628906 5.660156 -19.878906 7.140625 -20.703125 C 8.617188 -21.535156 10.304688 -21.953125 12.203125 -21.953125 C 14.960938 -21.953125 17.117188 -21.171875 18.671875 -19.609375 C 20.222656 -18.054688 21.003906 -15.753906 21.015625 -12.703125 C 21.015625 -11.503906 20.988281 -10.695312 20.9375 -10.28125 Z M 17.875 -12.703125 C 17.820312 -14.992188 17.3125 -16.660156 16.34375 -17.703125 C 15.382812 -18.742188 14.003906 -19.265625 12.203125 -19.265625 C 10.316406 -19.265625 8.835938 -18.738281 7.765625 -17.6875 C 6.691406 -16.632812 6.035156 -14.972656 5.796875 -12.703125 Z M 17.875 -12.703125 "/></g></g></g><g fill="#e60404" fill-opacity="1"><g transform="translate(797.644419, 405.291621)"><g><path d="M 20.53125 -10.046875 L 5.71875 -10.046875 C 5.8125 -7.421875 6.441406 -5.492188 7.609375 -4.265625 C 8.773438 -3.046875 10.375 -2.4375 12.40625 -2.4375 C 13.9375 -2.4375 15.171875 -2.707031 16.109375 -3.25 C 17.046875 -3.800781 17.785156 -4.664062 18.328125 -5.84375 L 18.734375 -5.84375 L 20.796875 -4.609375 C 20.171875 -3.046875 19.171875 -1.816406 17.796875 -0.921875 C 16.429688 -0.0351562 14.632812 0.40625 12.40625 0.40625 C 10.320312 0.40625 8.53125 0 7.03125 -0.8125 C 5.53125 -1.632812 4.375 -2.878906 3.5625 -4.546875 C 2.757812 -6.210938 2.359375 -8.285156 2.359375 -10.765625 C 2.359375 -13.210938 2.785156 -15.273438 3.640625 -16.953125 C 4.492188 -18.628906 5.660156 -19.878906 7.140625 -20.703125 C 8.617188 -21.535156 10.304688 -21.953125 12.203125 -21.953125 C 14.960938 -21.953125 17.117188 -21.171875 18.671875 -19.609375 C 20.222656 -18.054688 21.003906 -15.753906 21.015625 -12.703125 C 21.015625 -11.503906 20.988281 -10.695312 20.9375 -10.28125 Z M 17.875 -12.703125 C 17.820312 -14.992188 17.3125 -16.660156 16.34375 -17.703125 C 15.382812 -18.742188 14.003906 -19.265625 12.203125 -19.265625 C 10.316406 -19.265625 8.835938 -18.738281 7.765625 -17.6875 C 6.691406 -16.632812 6.035156 -14.972656 5.796875 -12.703125 Z M 17.875 -12.703125 "/></g></g></g><g fill="#e60404" fill-opacity="1"><g transform="translate(820.610924, 405.291621)"><g><path d="M 3.75 0 L 3.75 -21.546875 L 6.78125 -21.546875 L 6.78125 -18.171875 L 7.1875 -18.0625 C 7.90625 -19.332031 8.820312 -20.296875 9.9375 -20.953125 C 11.050781 -21.617188 12.40625 -21.953125 14 -21.953125 C 16.59375 -21.953125 18.472656 -21.289062 19.640625 -19.96875 C 20.804688 -18.644531 21.390625 -16.613281 21.390625 -13.875 L 21.390625 0 L 18.203125 0 L 18.203125 -13.796875 C 18.203125 -15.097656 18.035156 -16.140625 17.703125 -16.921875 C 17.367188 -17.710938 16.851562 -18.285156 16.15625 -18.640625 C 15.46875 -19.003906 14.554688 -19.1875 13.421875 -19.1875 C 11.484375 -19.1875 9.914062 -18.539062 8.71875 -17.25 C 7.53125 -15.96875 6.9375 -13.90625 6.9375 -11.0625 L 6.9375 0 Z M 3.75 0 "/></g></g></g><g fill="#e60404" fill-opacity="1"><g transform="translate(735.834047, 435.715896)"><g><path d="M 12.359375 0.40625 C 10.460938 0.40625 8.757812 -0.0234375 7.25 -0.890625 C 5.738281 -1.753906 4.546875 -3.03125 3.671875 -4.71875 C 2.796875 -6.40625 2.359375 -8.421875 2.359375 -10.765625 C 2.359375 -13.117188 2.796875 -15.140625 3.671875 -16.828125 C 4.546875 -18.515625 5.738281 -19.789062 7.25 -20.65625 C 8.757812 -21.519531 10.460938 -21.953125 12.359375 -21.953125 C 14.640625 -21.953125 16.453125 -21.519531 17.796875 -20.65625 C 19.148438 -19.800781 20.125 -18.660156 20.71875 -17.234375 L 18.5625 -15.671875 L 18.171875 -15.671875 C 17.578125 -16.847656 16.820312 -17.710938 15.90625 -18.265625 C 14.988281 -18.828125 13.804688 -19.109375 12.359375 -19.109375 C 11.035156 -19.109375 9.867188 -18.796875 8.859375 -18.171875 C 7.859375 -17.546875 7.082031 -16.609375 6.53125 -15.359375 C 5.976562 -14.109375 5.703125 -12.578125 5.703125 -10.765625 C 5.703125 -8.960938 5.984375 -7.441406 6.546875 -6.203125 C 7.109375 -4.960938 7.882812 -4.023438 8.875 -3.390625 C 9.875 -2.753906 11.035156 -2.4375 12.359375 -2.4375 C 13.859375 -2.4375 15.097656 -2.773438 16.078125 -3.453125 C 17.066406 -4.128906 17.84375 -5.195312 18.40625 -6.65625 L 18.8125 -6.65625 L 20.90625 -5.4375 C 20.34375 -3.625 19.34375 -2.195312 17.90625 -1.15625 C 16.46875 -0.113281 14.617188 0.40625 12.359375 0.40625 Z M 12.359375 0.40625 "/></g></g></g><g fill="#e60404" fill-opacity="1"><g transform="translate(758.038914, 435.715896)"><g><path d="M 12.359375 0.40625 C 10.328125 0.40625 8.5625 -0.0195312 7.0625 -0.875 C 5.5625 -1.738281 4.398438 -3.003906 3.578125 -4.671875 C 2.765625 -6.347656 2.359375 -8.378906 2.359375 -10.765625 C 2.359375 -13.148438 2.765625 -15.179688 3.578125 -16.859375 C 4.398438 -18.535156 5.5625 -19.800781 7.0625 -20.65625 C 8.5625 -21.519531 10.328125 -21.953125 12.359375 -21.953125 C 14.390625 -21.953125 16.15625 -21.519531 17.65625 -20.65625 C 19.164062 -19.800781 20.328125 -18.535156 21.140625 -16.859375 C 21.953125 -15.179688 22.359375 -13.148438 22.359375 -10.765625 C 22.359375 -8.378906 21.953125 -6.347656 21.140625 -4.671875 C 20.328125 -3.003906 19.164062 -1.738281 17.65625 -0.875 C 16.15625 -0.0195312 14.390625 0.40625 12.359375 0.40625 Z M 12.359375 -2.4375 C 14.515625 -2.4375 16.160156 -3.113281 17.296875 -4.46875 C 18.429688 -5.820312 19 -7.921875 19 -10.765625 C 19 -13.617188 18.429688 -15.722656 17.296875 -17.078125 C 16.160156 -18.429688 14.515625 -19.109375 12.359375 -19.109375 C 10.210938 -19.109375 8.566406 -18.425781 7.421875 -17.0625 C 6.273438 -15.695312 5.703125 -13.597656 5.703125 -10.765625 C 5.703125 -7.921875 6.273438 -5.820312 7.421875 -4.46875 C 8.566406 -3.113281 10.210938 -2.4375 12.359375 -2.4375 Z M 12.359375 -2.4375 "/></g></g></g><g fill="#e60404" fill-opacity="1"><g transform="translate(782.763061, 435.715896)"><g><path d="M 3.75 0 L 3.75 -21.546875 L 6.78125 -21.546875 L 6.78125 -18.171875 L 7.1875 -18.0625 C 8.1875 -20.507812 10.078125 -21.734375 12.859375 -21.734375 C 14.328125 -21.734375 15.425781 -21.46875 16.15625 -20.9375 L 15.328125 -18.25 L 14.9375 -18.171875 C 14.132812 -18.566406 13.25 -18.765625 12.28125 -18.765625 C 10.5625 -18.765625 9.238281 -18.117188 8.3125 -16.828125 C 7.394531 -15.546875 6.9375 -13.457031 6.9375 -10.5625 L 6.9375 0 Z M 3.75 0 "/></g></g></g><g fill="#e60404" fill-opacity="1"><g transform="translate(799.40206, 435.715896)"><g><path d="M 20.53125 -10.046875 L 5.71875 -10.046875 C 5.8125 -7.421875 6.441406 -5.492188 7.609375 -4.265625 C 8.773438 -3.046875 10.375 -2.4375 12.40625 -2.4375 C 13.9375 -2.4375 15.171875 -2.707031 16.109375 -3.25 C 17.046875 -3.800781 17.785156 -4.664062 18.328125 -5.84375 L 18.734375 -5.84375 L 20.796875 -4.609375 C 20.171875 -3.046875 19.171875 -1.816406 17.796875 -0.921875 C 16.429688 -0.0351562 14.632812 0.40625 12.40625 0.40625 C 10.320312 0.40625 8.53125 0 7.03125 -0.8125 C 5.53125 -1.632812 4.375 -2.878906 3.5625 -4.546875 C 2.757812 -6.210938 2.359375 -8.285156 2.359375 -10.765625 C 2.359375 -13.210938 2.785156 -15.273438 3.640625 -16.953125 C 4.492188 -18.628906 5.660156 -19.878906 7.140625 -20.703125 C 8.617188 -21.535156 10.304688 -21.953125 12.203125 -21.953125 C 14.960938 -21.953125 17.117188 -21.171875 18.671875 -19.609375 C 20.222656 -18.054688 21.003906 -15.753906 21.015625 -12.703125 C 21.015625 -11.503906 20.988281 -10.695312 20.9375 -10.28125 Z M 17.875 -12.703125 C 17.820312 -14.992188 17.3125 -16.660156 16.34375 -17.703125 C 15.382812 -18.742188 14.003906 -19.265625 12.203125 -19.265625 C 10.316406 -19.265625 8.835938 -18.738281 7.765625 -17.6875 C 6.691406 -16.632812 6.035156 -14.972656 5.796875 -12.703125 Z M 17.875 -12.703125 "/></g></g></g><g fill="#e60404" fill-opacity="1"><g transform="translate(618.710957, 435.699989)"><g><path d="M 24.96875 0.828125 C 21.375 0.828125 18.148438 0.335938 15.296875 -0.640625 C 12.441406 -1.617188 10.0625 -2.898438 8.15625 -4.484375 C 6.257812 -6.078125 4.84375 -7.828125 3.90625 -9.734375 L 7.578125 -14.1875 L 8.5625 -14.1875 C 12.101562 -8.21875 17.570312 -5.234375 24.96875 -5.234375 C 29.257812 -5.234375 32.453125 -6.128906 34.546875 -7.921875 C 36.648438 -9.722656 37.703125 -12.226562 37.703125 -15.4375 C 37.703125 -17.3125 37.351562 -18.898438 36.65625 -20.203125 C 35.96875 -21.503906 34.828125 -22.613281 33.234375 -23.53125 C 31.648438 -24.457031 29.492188 -25.257812 26.765625 -25.9375 L 20.078125 -27.578125 C 15.109375 -28.773438 11.441406 -30.679688 9.078125 -33.296875 C 6.722656 -35.921875 5.546875 -39.238281 5.546875 -43.25 C 5.546875 -46.082031 6.273438 -48.613281 7.734375 -50.84375 C 9.191406 -53.070312 11.328125 -54.8125 14.140625 -56.0625 C 16.953125 -57.3125 20.3125 -57.9375 24.21875 -57.9375 C 28.519531 -57.9375 32.144531 -57.328125 35.09375 -56.109375 C 38.050781 -54.898438 40.414062 -53.085938 42.1875 -50.671875 L 38.90625 -46.25 L 37.9375 -46.25 C 36.289062 -48.257812 34.347656 -49.734375 32.109375 -50.671875 C 29.867188 -51.609375 27.238281 -52.078125 24.21875 -52.078125 C 20.257812 -52.078125 17.269531 -51.304688 15.25 -49.765625 C 13.238281 -48.234375 12.234375 -46.113281 12.234375 -43.40625 C 12.234375 -40.820312 12.972656 -38.769531 14.453125 -37.25 C 15.941406 -35.726562 18.441406 -34.550781 21.953125 -33.71875 L 28.796875 -32.078125 C 34.335938 -30.773438 38.351562 -28.773438 40.84375 -26.078125 C 43.332031 -23.378906 44.578125 -19.9375 44.578125 -15.75 C 44.578125 -12.519531 43.851562 -9.660156 42.40625 -7.171875 C 40.957031 -4.679688 38.757812 -2.722656 35.8125 -1.296875 C 32.875 0.117188 29.257812 0.828125 24.96875 0.828125 Z M 24.96875 0.828125 "/></g></g></g><g fill="#e60404" fill-opacity="1"><g transform="translate(672.720668, 431.763046)"><g><path d="M 0.828125 -24.96875 C 0.828125 -21.375 0.335938 -18.148438 -0.640625 -15.296875 C -1.617188 -12.441406 -2.898438 -10.0625 -4.484375 -8.15625 C -6.078125 -6.257812 -7.828125 -4.84375 -9.734375 -3.90625 L -14.1875 -7.578125 L -14.1875 -8.5625 C -8.21875 -12.101562 -5.234375 -17.570312 -5.234375 -24.96875 C -5.234375 -29.257812 -6.128906 -32.453125 -7.921875 -34.546875 C -9.722656 -36.648438 -12.226562 -37.703125 -15.4375 -37.703125 C -17.3125 -37.703125 -18.898438 -37.351562 -20.203125 -36.65625 C -21.503906 -35.96875 -22.613281 -34.828125 -23.53125 -33.234375 C -24.457031 -31.648438 -25.257812 -29.492188 -25.9375 -26.765625 L -27.578125 -20.078125 C -28.773438 -15.109375 -30.679688 -11.441406 -33.296875 -9.078125 C -35.921875 -6.722656 -39.238281 -5.546875 -43.25 -5.546875 C -46.082031 -5.546875 -48.613281 -6.273438 -50.84375 -7.734375 C -53.070312 -9.191406 -54.8125 -11.328125 -56.0625 -14.140625 C -57.3125 -16.953125 -57.9375 -20.3125 -57.9375 -24.21875 C -57.9375 -28.519531 -57.328125 -32.144531 -56.109375 -35.09375 C -54.898438 -38.050781 -53.085938 -40.414062 -50.671875 -42.1875 L -46.25 -38.90625 L -46.25 -37.9375 C -48.257812 -36.289062 -49.734375 -34.347656 -50.671875 -32.109375 C -51.609375 -29.867188 -52.078125 -27.238281 -52.078125 -24.21875 C -52.078125 -20.257812 -51.304688 -17.269531 -49.765625 -15.25 C -48.234375 -13.238281 -46.113281 -12.234375 -43.40625 -12.234375 C -40.820312 -12.234375 -38.769531 -12.972656 -37.25 -14.453125 C -35.726562 -15.941406 -34.550781 -18.441406 -33.71875 -21.953125 L -32.078125 -28.796875 C -30.773438 -34.335938 -28.773438 -38.351562 -26.078125 -40.84375 C -23.378906 -43.332031 -19.9375 -44.578125 -15.75 -44.578125 C -12.519531 -44.578125 -9.660156 -43.851562 -7.171875 -42.40625 C -4.679688 -40.957031 -2.722656 -38.757812 -1.296875 -35.8125 C 0.117188 -32.875 0.828125 -29.257812 0.828125 -24.96875 Z M 0.828125 -24.96875 "/></g></g></g></svg>